@startuml
title 工厂方法模式

legend right
作用：将类的实例化（具体产品的创建）延迟到工厂类的子类（具体工厂）
中完成，即由子类来决定应该实例化（创建）哪一个类。
end legend

interface Product{
    +show() : void
}
class ProductA
class ProductB

Product <|.. ProductA : implement
Product <|.. ProductB : implement

interface Factory{
    +createProduct() : Product
}
class FactoryA
class FactoryB

Factory <|-- FactoryA : implement
Factory <|-- FactoryB : implement

ProductA <-- FactoryA : 关联
ProductB <-- FactoryB : 关联



@enduml